<svg xmlns:dc="http://purl.org/dc/elements/1.1/" xmlns:cc="http://creativecommons.org/ns#" xmlns:rdf="http://www.w3.org/1999/02/22-rdf-syntax-ns#" xmlns:svg="http://www.w3.org/2000/svg" xmlns="http://www.w3.org/2000/svg" id="svg17" preserveAspectRatio="xMidYMid" version="1.1" viewBox="0 0 128 128"> <metadata id="metadata21"> <rdf:RDF> <cc:Work rdf:about=""> <dc:format>image/svg+xml</dc:format> <dc:type rdf:resource="http://purl.org/dc/dcmitype/StillImage" /> <dc:title></dc:title> </cc:Work> </rdf:RDF> </metadata> <defs id="defs7"> <linearGradient gradientUnits="userSpaceOnUse" gradientTransform="scale(0.93060585,1.0745688)" id="linearGradient-1" y2="265.17056" x2="137.5448" y1="125.77112" x1="137.5448"> <stop id="stop2" offset="0%" stop-color="#F7F6F3" /> <stop id="stop4" offset="100%" stop-color="#FEF6D5" /> </linearGradient> </defs> <g transform="matrix(0.43302344,0,0,0.43302344,8.5729997,-0.17493985)" id="g15"> <path style="fill:#a1070c" id="path9" d="M 11.071,215.711 127.997,283.22 244.929,215.711 V 80.696 L 127.997,13.189 11.071,80.696 Z M 127.997,296 0,222.1 V 74.306 L 127.997,0.404 256,74.306 V 222.1 Z" /> <path style="fill:url(#linearGradient-1)" id="path11" d="M 9.579,79.833 128,11.463 246.421,79.833 V 216.574 L 128,284.944 9.579,216.574 V 79.833" /> <path style="fill:#a1070c" id="path13" d="m 182.33228,98.173325 c 0,5.371415 -1.06013,10.707405 -3.18043,16.008145 -2.12029,5.30074 -4.96498,10.21268 -8.53414,14.73597 -3.56916,4.5233 -7.68601,8.48112 -12.35066,11.87359 -4.66464,3.39248 -9.50591,5.83078 -14.52394,7.31498 l -2.2263,-3.71049 c 2.96841,-1.48421 5.68942,-3.39245 8.16309,-5.72477 2.47368,-2.33232 4.59394,-4.96498 6.36086,-7.89806 1.76691,-2.93307 3.12741,-6.04279 4.08154,-9.32925 0.95414,-3.28645 1.43119,-6.62587 1.43119,-10.01834 0,-3.88721 -0.5654,-7.56233 -1.69622,-11.02548 -1.13083,-3.463145 -2.7917,-6.484519 -4.98267,-9.064211 -2.19097,-2.579692 -4.89431,-4.61161 -8.11009,-6.095817 -3.21578,-1.484206 -6.90857,-2.226298 -11.07848,-2.226298 -5.08871,0 -9.75329,0.989456 -13.99387,2.968398 -4.24059,1.978941 -8.05707,4.646939 -11.44954,8.004072 -3.39247,3.357133 -6.34317,7.208946 -8.85219,11.555546 -2.50901,4.34661 -4.593935,8.90517 -6.254833,13.67583 -1.660897,4.77067 -2.915386,9.59426 -3.763504,14.47094 -0.848118,4.87668 -1.27217,9.47058 -1.27217,13.78185 0,4.38194 0.45939,8.90517 1.378184,13.56982 0.918795,4.66464 2.261628,9.25855 4.02854,13.78184 1.766912,4.5233 3.95785,8.79916 6.572883,12.82772 2.61503,4.02856 5.6364,7.56233 9.06421,10.60142 3.42781,3.03909 7.24429,5.45972 11.44954,7.26197 4.20525,1.80225 8.78148,2.70337 13.72883,2.70337 3.39248,0 6.69655,-0.45939 9.91233,-1.37819 3.21578,-0.91879 6.30783,-2.15561 9.27624,-3.7105 2.96842,-1.55488 5.77777,-3.39244 8.42813,-5.51273 2.65037,-2.1203 5.10634,-4.41725 7.36799,-6.89093 l 3.49847,3.39246 c -3.10977,4.09923 -6.80256,8.03939 -11.07848,11.82058 -4.27593,3.78119 -8.8875,7.13828 -13.83486,10.07135 -4.94735,2.93307 -10.12433,5.26536 -15.53108,6.99694 -5.40675,1.73157 -10.76041,2.59735 -16.06115,2.59735 -5.15938,0 -10.01832,-0.90112 -14.57695,-2.70337 -4.558636,-1.80225 -8.746155,-4.24055 -12.562685,-7.31498 -3.816531,-3.07442 -7.22662,-6.67887 -10.230371,-10.81345 -3.00375,-4.13457 -5.548066,-8.53412 -7.633022,-13.19876 -2.084957,-4.66465 -3.675154,-9.47058 -4.770639,-14.41793 -1.095486,-4.94736 -1.643221,-9.78863 -1.643221,-14.52395 0,-6.85562 1.148476,-13.90549 3.445462,-21.14983 2.296986,-7.24434 5.459711,-14.27655 9.488271,-21.09683 4.02856,-6.82028 8.781482,-13.26941 14.25891,-19.34759 5.477428,-6.078179 11.378825,-11.378837 17.704375,-15.902132 6.32554,-4.523295 12.9337,-8.110073 19.82465,-10.760441 6.89096,-2.650369 13.76415,-3.975533 20.61976,-3.975533 4.24059,0 8.19842,0.61841 11.8736,1.855249 3.67517,1.236838 6.85557,3.021393 9.54127,5.353717 2.68571,2.332324 4.80597,5.230016 6.36086,8.693164 1.55488,3.463148 2.33231,7.420972 2.33231,11.873591 z" /> </g> </svg>
