<?xml version="1.0" encoding="UTF-8" standalone="no"?>
<!-- Created with Inkscape (http://www.inkscape.org/) -->

<svg
   xmlns:dc="http://purl.org/dc/elements/1.1/"
   xmlns:cc="http://creativecommons.org/ns#"
   xmlns:rdf="http://www.w3.org/1999/02/22-rdf-syntax-ns#"
   xmlns:svg="http://www.w3.org/2000/svg"
   xmlns="http://www.w3.org/2000/svg"
   xmlns:sodipodi="http://sodipodi.sourceforge.net/DTD/sodipodi-0.dtd"
   xmlns:inkscape="http://www.inkscape.org/namespaces/inkscape"
   width="478.8688"
   height="301.72455"
   viewBox="0 0 126.7007 79.831289"
   version="1.1"
   id="svg8"
   inkscape:version="0.92.5 (2060ec1f9f, 2020-04-08)"
   sodipodi:docname="monogram.svg">
  <defs
     id="defs2" />
  <sodipodi:namedview
     id="base"
     pagecolor="#ffffff"
     bordercolor="#666666"
     borderopacity="1.0"
     inkscape:pageopacity="0.0"
     inkscape:pageshadow="2"
     inkscape:zoom="0.37457075"
     inkscape:cx="-655.727"
     inkscape:cy="22.018644"
     inkscape:document-units="mm"
     inkscape:current-layer="layer1"
     showgrid="false"
     fit-margin-top="0"
     units="px"
     fit-margin-left="0"
     fit-margin-right="0"
     fit-margin-bottom="0"
     inkscape:window-width="1600"
     inkscape:window-height="835"
     inkscape:window-x="0"
     inkscape:window-y="0"
     inkscape:window-maximized="1" />
  <metadata
     id="metadata5">
    <rdf:RDF>
      <cc:Work
         rdf:about="">
        <dc:format>image/svg+xml</dc:format>
        <dc:type
           rdf:resource="http://purl.org/dc/dcmitype/StillImage" />
        <dc:title></dc:title>
      </cc:Work>
    </rdf:RDF>
  </metadata>
  <g
     inkscape:label="Layer 1"
     inkscape:groupmode="layer"
     id="layer1"
     transform="translate(-75.990263,2.8950164)">
    <g
       aria-label="M"
       style="font-style:normal;font-weight:normal;font-size:10.58333302px;line-height:1.25;font-family:sans-serif;letter-spacing:0px;word-spacing:0px;fill:#000000;fill-opacity:1;stroke:none;stroke-width:0.26458332"
       id="text817">
      <path
         style="color:#000000;font-style:normal;font-variant:normal;font-weight:normal;font-stretch:normal;font-size:medium;line-height:1.25;font-family:sans-serif;font-variant-ligatures:normal;font-variant-position:normal;font-variant-caps:normal;font-variant-numeric:normal;font-variant-alternates:normal;font-feature-settings:normal;text-indent:0;text-align:start;text-decoration:none;text-decoration-line:none;text-decoration-style:solid;text-decoration-color:#000000;letter-spacing:0px;word-spacing:0px;text-transform:none;writing-mode:lr-tb;direction:ltr;text-orientation:mixed;dominant-baseline:auto;baseline-shift:baseline;text-anchor:start;white-space:normal;shape-padding:0;clip-rule:nonzero;display:inline;overflow:visible;visibility:visible;opacity:1;isolation:auto;mix-blend-mode:normal;color-interpolation:sRGB;color-interpolation-filters:linearRGB;solid-color:#000000;solid-opacity:1;vector-effect:none;fill:#000000;fill-opacity:1;fill-rule:nonzero;stroke:none;stroke-width:0.89783555;stroke-linecap:butt;stroke-linejoin:miter;stroke-miterlimit:4;stroke-dasharray:none;stroke-dashoffset:0;stroke-opacity:1;color-rendering:auto;image-rendering:auto;shape-rendering:auto;text-rendering:auto;enable-background:accumulate"
         d="m 133.37588,-2.8950164 c -26.07534,-5e-6 -47.314716,17.4801154 -47.299115,39.1448724 0.0075,10.460239 5.300694,20.421613 14.148035,27.873949 -1.066004,0.727916 -2.099035,1.40257 -3.076244,1.986178 -2.38964,1.393968 -4.546953,2.40624 -6.471941,3.036834 -1.958177,0.5974 -3.949544,0.896115 -5.9741,0.896115 -2.057745,0 -3.700623,-0.414868 -4.928632,-1.244604 -1.261199,-0.862925 -1.891798,-2.02455 -1.891798,-3.484891 l 0.04976,-0.59741 c 0.531031,0.365089 1.261199,0.547626 2.190504,0.547626 0.896115,0 1.626282,-0.248921 2.190503,-0.746763 0.56422,-0.497842 0.846331,-1.078657 0.846331,-1.742446 0,-1.526714 -1.012278,-2.290071 -3.036834,-2.290071 -0.829737,0 -1.82542,0.497841 -2.98705,1.493525 -0.763358,0.630599 -1.145036,1.642877 -1.145036,3.036834 0,1.891803 0.779952,3.435112 2.339856,4.629927 1.559903,1.16162 3.899759,1.742446 7.019567,1.742446 3.119807,0 6.637888,-0.995678 10.554243,-2.98705 1.781742,-0.914627 3.637202,-2.00614 5.559231,-3.26086 9.39557,7.392592 22.44365,12.050552 37.31947,11.786402 4.02404,-0.0715 5.48692,-0.82979 5.65932,-3.19411 0.091,-1.24781 -0.45402,-2.523616 -1.54902,-2.987424 -1.02118,0.239469 -2.04183,0.48112 -3.50045,0.766464 -13.31323,2.60445 -26.83959,-0.212354 -36.70856,-7.190697 8.54474,-5.806108 18.42754,-14.857491 29.66203,-27.18423 l 11.59971,-12.645178 8.86158,-9.409207 6.27281,-6.4221574 0.34434,-0.331895 c 0.12638,0.07277 0.25332,0.145088 0.37857,0.218843 -6.36469,7.3725074 -12.18432,14.7451464 -17.45039,22.1176524 -2.92068,4.115491 -5.55923,8.08163 -7.91568,11.898416 -2.32327,3.783596 -4.31463,7.318272 -5.9741,10.604027 -1.62629,3.285754 -2.88749,6.272804 -3.7836,8.961149 -0.86293,2.655156 -1.29439,4.646528 -1.29439,5.9741 0,1.294388 0.11616,2.107519 0.34849,2.439424 0.26552,0.298732 0.51444,0.448058 0.74676,0.448058 0.82974,0 2.5224,-1.476931 5.07799,-4.430791 11.21803,-13.10983 21.47357,-24.078941 30.76661,-32.907333 l 12.5622,-11.897374 c 0.39578,0.773245 0.75427,1.564661 1.07244,2.375116 l -0.2427,0.262404 -8.21439,9.309638 -7.81611,9.55856 c -5.97409,7.633572 -10.08959,13.922971 -12.34647,18.868198 -0.49785,1.095252 -0.84637,2.007962 -1.04547,2.738129 -0.16602,0.730173 -0.24892,1.559904 -0.24892,2.489209 0,0.929299 0.48126,1.842003 1.44374,2.738129 0.99568,0.896125 2.20709,1.344172 3.63424,1.344172 1.46035,0 2.78792,-0.132758 3.98274,-0.398273 4.51377,-0.896126 8.36374,-2.655161 11.54992,-5.277122 8.75544,-7.097968 16.01912,-18.543223 16.0191,-29.511638 -1e-5,-4.213817 -0.8068,-8.268096 -2.29215,-12.067475 l 5.68888,-7.308936 c 2.58879,-3.186187 5.11117,-6.123453 7.56719,-8.8117974 2.456,-2.688345 4.48057,-4.729496 6.07367,-6.123453 1.59309,-1.39395604 2.8211,-2.37304504 3.68403,-2.93726504 0.86293,-0.59740996 1.29438,-1.02887296 1.29438,-1.29438896 0,-0.265505 -0.16593,-0.398273 -0.49784,-0.398273 -3.80986,0 -12.92844,6.725981 -27.3232,20.1376974 -2.70054,-4.07321 -6.25668,-7.6973114 -10.45779,-10.7233024 l 0.79136,-1.150224 c 1.65947,-2.323261 3.26917,-4.18187 4.82906,-5.57582604 l 1.39396,-1.19481996 c 0.39832,-0.365084 0.59741,-0.647189 0.59741,-0.846331 0,-0.3319 -0.44805,-0.497842 -1.34417,-0.497842 -0.76336,0 -3.31894,1.92498796 -7.66676,5.774964 -0.52887,0.470435 -1.07994,0.975631 -1.62836,1.47693 -7.84741,-4.77929104 -17.53453,-7.604525 -28.00878,-7.60453 z m -4.8778,3.72551796 c 11.05991,0 21.48962,2.40770504 29.7284,6.82664904 C 153.2585,12.40416 147.58609,18.262988 141.20756,25.237184 l -14.38763,15.233955 c -4.34781,4.447385 -8.31395,8.33055 -11.89841,11.649494 -3.58446,3.318944 -6.85362,6.123452 -9.80748,8.413524 -1.30959,1.026839 -2.55796,1.953239 -3.76079,2.806584 C 94.696627,58.200174 89.911341,51.056404 88.331576,42.323524 84.9136,23.429124 102.82348,0.83049556 128.49808,0.83050156 Z m 67.52184,0.46049904 -6.62129,6.621294 -7.61698,7.7663304 -4.86329,5.253267 c -0.34156,-0.664362 -0.70718,-1.318534 -1.0911,-1.96336 l 2.36993,-2.24444 10.90273,-9.9070494 3.73382,-3.136402 c 1.12844,-0.896115 2.19051,-1.692662 3.18618,-2.38964 z m -33.0069,3.58446 c -0.16486,0.185654 -0.32434,0.371308 -0.4885,0.556961 -0.0181,-0.01168 -0.0359,-0.02358 -0.0539,-0.03526 z m -0.86915,5.1443644 c 4.12419,2.80497 7.49747,6.204843 9.85623,10.136263 l -8.14075,7.769441 -8.11482,7.965467 -7.16892,7.268488 -6.87021,7.368056 -7.2187,8.065035 -8.31396,9.508775 c 1.5599,-3.25256 8.41354,-14.752707 20.56086,-34.500426 l 13.09324,-20.212371 z m 13.06835,18.30813 c 0.87383,2.516328 1.57597,6.673388 1.54387,9.0196 -0.14202,10.38144 -3.86843,19.672913 -12.462,26.810958 -1.06529,0.884857 -2.14072,1.82542 -3.43511,2.588777 -3.98274,2.35645 -7.70864,3.253787 -10.59514,3.328848 -1.28806,0.03351 -2.3703,-1.015645 -2.30327,-1.973747 0.0417,-0.595934 0.49888,-1.776676 1.36181,-3.33658 0.66379,-1.19482 6.96979,-10.189159 18.91798,-26.983017 z"
         id="path822"
         inkscape:connector-curvature="0"
         sodipodi:nodetypes="sscccscccsssscscsccsscccccccccccccscscccccccccscsccscccscsscccccssccsscccsccssccccccccccccccccccccccccccsscccccc" />
    </g>
  </g>
</svg>
